Patient4_TMGait_0pt5_01_left_29_EMG.mot
version=1
nRows=37
nColumns=33
inDegrees=no
endheader
time	1LAddLong	2LGlutMax	3LGlutMed	4LIliopsoas	5LSemiMemb	6LBicFemLong	7LRecFem	8LVastMed	9LVastLat	10LGasMed	11LTibAnt	12lTibPost	13LPeroneusLong	14LSol	15LExtDigLong	16LFlexDigLong	17RAddLong	18RGlutMax	19RGlutMed	20RIliopsoas	21RSemiMemb	22RBicFemLong	23RRecFem	24RVastMed	25RVastLat	26RGasMed	27RTibAnt	28RTibPost	29RPeroneusLong	30RSol	31RExtDigLong	32RFlexDigLong
39.175	0.005035	1.1763	0.21652	-0.000763	0.087128	0.018616	0.35172	-0.040436	-0.22705	0.066681	0.01358	-0.004272	-0.25635	-0.014496	0.04837	0.010529	-0.048828	-0.023346	-0.11734	0.050659	-0.049133	-0.002594	0.22675	-0.040588	0.011749	-0.019531	0.012054	-0.002594	-0.013885	0.11673	0.014954	-0.016785
39.176	0.004272	1.075	0.016632	0.001678	0.005188	-0.013428	0.35187	-0.011902	-0.083466	-0.099487	0.000916	-0.004272	0.12161	0.030365	0.007324	0.015869	-0.046387	-0.043182	-0.12192	0.10117	0.061035	0.081482	0.22278	0.026093	0.010529	-0.009155	0.011597	-0.014343	-0.063171	0.14633	0.010071	-0.016022
39.177	0.024414	1.0187	-0.10437	0.003357	-0.024719	-0.009308	0.40344	-0.005341	-0.014496	-0.2507	-0.003204	-0.006561	0.028992	0.006866	-0.036774	0.016022	-0.023499	-0.052948	-0.12756	0.15778	0.14206	0.11932	0.19348	0.061188	0.024109	-0.006256	0.044708	-0.00412	0.26611	0.10513	0.00946	-0.013733
39.178	0.045166	0.93948	-0.16434	0.000153	0.037079	0.014648	0.34332	-0.016022	0.03006	-0.21545	-0.003204	-0.014038	0.19989	0.001831	-0.023956	0.006256	0.009308	-0.10498	-0.15366	0.12985	0.12955	0.11154	0.19714	0.019836	0.024414	-0.014648	0.046082	-0.001068	0.69702	-0.2095	0.011749	-0.012817
39.179	0.041962	0.87448	-0.075989	0.007172	-0.015259	-0.04364	0.21316	-0.032501	-0.006104	-0.1236	0.019684	-0.016479	0.32089	-0.06073	0.008545	0.005035	0.032654	-0.13443	-0.18082	0.087128	0.10101	0.093384	0.20599	-0.007019	0.011597	-0.007172	-0.000153	0.015564	0.48431	-0.52017	0.011749	-0.017242
39.18	0.038147	0.77423	-0.18463	0.006866	-0.040588	-0.13077	0.19974	-0.027313	0.014801	-0.079346	0.015564	-0.016022	0.4158	-0.17197	-0.044098	0.01236	0.027924	-0.17487	-0.23239	0.044098	0.074005	0.076447	0.2005	0.048065	0.034332	0.00473	0.03952	0.016479	-0.42404	-0.50308	0.003662	-0.018311
39.181	0.022888	0.70328	-0.16525	0.004883	-0.06073	-0.086823	0.19913	0.001221	0.037689	-0.073853	0.002594	-0.005188	0.1207	-0.10315	-0.056152	0.011749	0.02182	-0.23224	-0.18295	-0.14374	0.016479	0.073242	0.14481	0.035553	0.054932	0.009613	-0.004272	0.015106	-0.67047	-0.24078	0.010834	-0.014343
39.182	-0.000763	0.63034	-0.11795	0.006256	-0.084381	-0.018311	0.091553	0.003052	0.031433	-0.026245	0.017242	0.002899	-0.233	-0.027771	-0.019684	0.003967	0.006561	-0.22736	-0.13245	-0.21851	0.022888	0.10819	0.2243	0.017548	0.030212	0.005035	0.007172	-0.010223	-0.56351	0.14633	0.010071	-0.00412
39.183	-0.003204	0.6955	-0.036621	0.006409	-0.11139	0.066071	0.094452	0.010376	0.091553	0.030212	0.011292	0.015411	-0.020447	0.014343	0.085602	-0.00351	0.007477	-0.27161	-0.15717	-0.16098	0.013733	0.10803	0.22903	-0.018158	0.024872	0.008545	-0.052643	-0.007324	-0.098267	0.087891	0.008698	-0.005341
39.184	-0.000153	0.70862	0	0.010986	-0.025024	0.11673	0.068817	0.036163	0.14145	0.045929	0.009918	-0.007477	-0.16785	0.038757	0.15915	0.001831	-0.002289	-0.30563	-0.21713	-0.10651	0.049438	0.072327	0.21744	-0.05661	0.023956	0.002441	-0.068817	-0.005951	0.073242	0.06012	0.003662	-0.009003
39.185	0.001526	0.62943	-0.09964	0.027008	0.075226	0.15381	0.017548	0.017548	-0.037231	0.097351	0.008392	-0.070496	-0.35568	0.19196	0.090485	-0.008087	0.006561	-0.35751	-0.31738	-0.016327	0.041809	0.046539	0.20172	-0.041656	0.026245	-0.003967	-0.045471	-0.007019	-0.14725	0.21255	0.005188	-0.001373
39.186	0.008392	0.60257	-0.14069	0.007019	0.080261	0.14145	-0.043945	-0.023346	-0.17425	0.11612	-0.007019	-0.027313	-0.22827	0.061493	-0.061035	-0.007629	-0.002747	-0.41351	-0.31632	0.045013	0.023041	0.048981	0.21118	-0.050964	0.027618	-0.007629	0.046387	-0.002899	0.00885	0.018463	0.004578	-0.004883
39.187	0.006409	0.58243	-0.12161	0.023651	0.012817	0.19501	-0.10712	-0.036621	-0.21347	0.07843	-0.033875	-0.019379	0.32013	-0.26779	-0.069885	-0.017853	0.024109	-0.38361	-0.32394	0.069122	0.001678	0.048981	0.26306	-0.098877	0.010071	-0.012207	0.073547	-0.001373	0.44769	-0.17746	0.005951	-0.007324
39.188	0.000153	0.42633	-0.089111	0.012207	-0.057068	0.20371	-0.22339	-0.010834	-0.13779	0.11383	-0.013885	-0.01297	0.3363	-0.21637	0.012054	-0.031433	0.000916	-0.48325	-0.31036	0.12329	-0.011902	0.026093	0.23346	-0.11322	0.013123	-0.015259	0.091095	-0.001526	0.48966	0.14664	0.002747	-0.007629
39.189	-0.005646	0.29907	-0.059662	0.009766	-0.11597	-0.022583	-0.25253	0.008087	-0.091553	0.21027	0.00946	-0.008087	0.12253	-0.16083	0.036621	-0.013428	-0.005035	-0.49576	-0.26276	0.18402	-0.021973	-0.024719	0.23956	-0.084991	0.01236	0.004883	0.072479	-0.015411	-0.073395	-0.011292	0.003052	-0.017548
39.19	-0.005341	0.26184	-0.17654	-0.005798	-0.14633	-0.12161	-0.24674	-0.007172	-0.10284	0.13672	0.008392	-0.005951	0.28748	-0.089722	0.019989	-0.002289	-0.004272	-0.50629	-0.32166	0.11459	-0.02182	-0.037537	0.26977	-0.099487	0.013275	0.033264	0.018768	-0.02121	-0.39276	-0.45456	0.00351	-0.012054
39.191	0.001984	0.27359	-0.091553	0.021057	-0.11017	-0.08194	-0.26291	-0.001678	-0.13779	-0.06134	0.007324	-0.005798	0.34882	0.053558	0.031281	0	-0.011139	-0.52719	-0.31662	-0.000763	-0.0354	-0.02533	0.26932	-0.095367	0.00351	0.048065	-0.019379	-0.023499	0.22751	-0.39169	0.001221	-0.01358
39.192	0.01358	0.26398	0.059357	0.008392	0.041199	-0.015869	-0.25757	0.001068	-0.12451	-0.062103	0.016632	0.003815	-0.35523	0.12924	-0.009308	0.000916	-0.032043	-0.55374	-0.35812	-0.029297	-0.061035	-0.018005	0.20752	-0.086212	-0.012054	0.04303	-0.008087	-0.005798	0.018311	-0.27741	-0.002136	-0.007935
39.193	0.014496	0.31128	0.15793	0.010681	0.12772	0.1088	-0.29495	-0.007935	-0.068207	-0.014343	0.026093	0.008545	-0.66818	0.1471	0.054779	-0.005341	-0.046082	-0.60562	-0.45044	0.023956	-0.083008	0.001526	0.21988	-0.06485	0.007172	0.010529	-0.045166	0.003967	-0.22781	-0.39642	0	-0.001373
39.194	0.002899	0.26047	0.081024	0.016022	0.10986	0.3154	-0.32394	0.001221	-0.13657	-0.13489	0.041199	0.012207	-0.21255	-0.001221	0.13931	-0.00824	-0.035553	-0.58166	-0.47211	0.039063	-0.076599	0.032196	0.21179	-0.04303	0.005188	-0.021057	-0.027161	-0.034027	-0.29083	-0.54169	0.002441	-0.003052
39.195	0.000305	0.25711	0.041046	0.007324	-0.015869	0.57053	-0.33386	-0.010681	-0.20264	-0.10376	0.025787	0.011749	0.50507	-0.16403	0.011597	-0.012665	-0.043182	-0.54825	-0.36407	-0.001068	-0.06012	0.049438	0.1503	0.018158	0.031433	-0.020142	-0.028229	-0.54489	-0.20874	-0.42893	-0.000458	-0.010834
39.196	-0.00473	0.2301	-0.02655	0.00473	-0.11261	0.616	-0.32806	-0.013733	-0.13977	-0.007172	0.003662	0.001831	1.2534	-0.18127	-0.12116	-0.029297	-0.025787	-0.569	-0.38391	0.001984	-0.03479	0.054016	0.12817	0.030823	0.03418	-0.014954	0.013733	-0.080261	-0.2536	-0.073853	0.001984	-0.011444
39.197	0.006409	0.26321	0.034485	0.018005	-0.053864	0.54581	-0.23453	-0.029907	-0.048828	0.088348	-0.033569	0.002289	1.0139	-0.010529	-0.13092	-0.013885	-0.040283	-0.53574	-0.34485	-0.007935	-0.032654	0.036774	0.13947	-0.012512	0.014038	-0.010223	0.1088	0.18051	-0.18173	-0.035706	0.003815	-0.013123
39.198	0.007172	0.2948	-0.003967	-0.002289	0.049438	0.36057	-0.23834	-0.024414	-0.009308	0.14786	-0.010223	0.016479	0.52368	-0.021362	-0.11353	-0.014343	-0.032654	-0.54169	-0.3508	0.010681	-0.001373	0.04425	0.14313	0.00351	0.023956	0.00885	0.11139	0.24002	0.49347	0.015869	0.003815	-0.00473
39.199	0.01297	0.30151	-0.055389	0.030212	0.097809	0.29984	-0.25055	-0.022125	-0.000763	0.070343	-0.002747	0.017853	0.17578	-0.093994	0.000763	-0.003967	0.015106	-0.63294	-0.37033	-0.056458	0.029297	0.048828	0.10162	-0.000153	0.035706	0.036011	0.028992	0.12405	0.81543	0.29205	0.001831	-0.00412
39.2	0.009308	0.34424	-0.07309	0.018768	0.067291	-0.019836	-0.31998	-0.041351	0.053711	0.026398	-0.005951	0.013428	-0.6604	-0.044556	0.057068	-0.002289	0.025787	-0.56076	-0.34958	-0.076447	0.018005	0.036316	0.1149	-0.018005	0.046692	0.045166	-0.003357	0.12512	0.052185	0.31342	-0.001221	-0.001678
39.201	-0.004883	0.41794	-0.060425	0.002747	0.014191	-0.40512	-0.34851	-0.020752	0.19501	-0.027466	-0.01236	0.027771	-1.7116	-0.079346	-0.079956	0.000153	0.061188	-0.51483	-0.36331	-0.12405	-0.014343	0.032501	0.09552	-0.003815	0.060272	0.033569	-0.026855	0.10162	-0.53558	-0.31418	0.000305	-0.007172
39.202	-0.006866	0.4364	-0.13748	-0.009308	-0.016632	-0.5867	-0.42282	0.005798	0.46646	-0.1358	-0.022736	0.032349	-0.78842	-0.026093	-0.17578	0.00473	0.076141	-0.53284	-0.33524	-0.15457	-0.021057	0.037842	0.12711	-0.006104	0.056	-0.006866	0.020447	0.1387	-0.82687	-0.94925	-0.001984	-0.009155
39.203	-0.011597	0.42923	-0.17303	-0.004578	-0.024261	-0.6076	-0.4216	0.028381	0.52719	-0.23621	-0.018921	0.031433	0.24551	0.01358	-0.22553	-0.016174	0.097961	-0.52811	-0.32318	-0.10071	-0.016785	0.037384	0.11627	-0.004883	0.03891	-0.012817	0.024414	-0.017242	-0.68222	-0.84808	-0.001831	-0.007324
39.204	-0.0177	0.47958	-0.08194	0.013885	-0.002289	-0.20096	-0.34546	0.045471	0.43488	-0.19821	-0.006714	0.033569	0.4303	-0.026855	-0.12848	0.004425	0.10269	-0.55832	-0.32486	0.021667	-0.008392	0.028381	0.10117	0.014191	0.032501	0.00351	0.056152	-0.091095	-0.67062	-0.4184	-0.002594	0.006104
39.205	-0.031738	0.53345	-0.000458	0.036774	-0.015411	-0.015259	-0.33661	0.025635	0.29236	-0.074921	0.015717	0.042572	0.37201	-0.076752	0.001984	0.00351	0.082397	-0.47913	-0.31845	0.18921	-0.005188	0.044403	0.083466	-0.006561	0.049744	0.00412	-0.03006	-0.36118	0.2179	-0.24658	-0.001678	0.002136
39.206	-0.029144	0.48599	0.051117	0.04364	-0.046844	-0.10483	-0.37308	0.009155	0.14816	-0.042114	0.004578	0.038605	0.62042	-0.11322	-0.031586	0.00885	0.073242	-0.39902	-0.35156	0.28275	0.002441	0.037842	0.076904	0.000305	0.051422	0.000916	-0.18448	-0.27283	0.62515	-0.33295	0.000763	0.001068
39.207	-0.018463	0.45776	0.065765	0.027618	-0.040741	-0.31616	-0.28915	-0.002747	-0.072479	-0.045166	0.010376	0.035706	0.31342	-0.068054	-0.014038	0.013885	0.050049	-0.38071	-0.35309	0.2005	0.026093	0.019836	0.093384	0.025024	0.032501	-0.023346	-0.1651	0.41412	0.37598	-0.55542	0.007782	0.005951
39.208	0.001068	0.34836	-0.044708	0.009613	0.006409	-0.36941	-0.1326	-0.004883	-0.35019	-0.028381	0.004272	0.034943	0.068817	-0.073242	-0.04776	0.013885	0.029907	-0.38589	-0.24338	0.063629	0.032501	0.055237	0.08194	0.041351	0.039978	-0.050049	-0.083923	0.31845	0.09964	-0.28885	0.000305	-0.007935
39.209	-0.022583	0.24841	-0.11734	-0.00473	0.037537	-0.23209	-0.11551	0.021362	-0.51178	-0.024719	0.011292	0.032501	-0.31494	-0.033417	0.12024	0.00946	0.051575	-0.3273	-0.21896	-0.1268	0.042419	0.05661	0.0737	0.05661	0.0354	-0.083618	-0.019073	0.097656	0.21118	0.19257	0.001526	-0.022888
39.21	-0.014801	0.21866	-0.10559	-0.017548	0.018158	-0.13214	-0.13077	0.021973	-0.16937	-0.014954	-0.03067	0.019379	-0.064087	-0.13077	0.13199	0.013733	0.075073	-0.32181	-0.16464	-0.28137	0.021057	0.058441	0.081024	0.03418	0.036926	-0.063324	0.062866	-0.0914	0.29633	-0.17563	-0.000458	-0.020599
39.211	0.032806	0.20172	-0.11093	0.001221	0.032501	-0.15991	-0.11581	0.010681	0.33295	-0.020142	-0.026245	0.015564	0.50919	-0.21866	0.15427	0.006256	0.097961	-0.29266	-0.33554	-0.23102	-0.001678	0.052948	0.088348	-0.006409	0.028381	-0.016327	0.10208	-0.043182	-0.12787	0.83603	0.007324	-0.009918
